<?xml version="1.0" encoding="utf-8"?>
<!-- Generator: Adobe Illustrator 17.0.0, SVG Export Plug-In . SVG Version: 6.00 Build 0)  -->
<!DOCTYPE svg PUBLIC "-//W3C//DTD SVG 1.1//EN" "http://www.w3.org/Graphics/SVG/1.1/DTD/svg11.dtd">
<svg version="1.1" id="Слой_1" xmlns="http://www.w3.org/2000/svg" xmlns:xlink="http://www.w3.org/1999/xlink" x="0px" y="0px"
	 width="313.515px" height="142px" viewBox="0 0 313.515 142" enable-background="new 0 0 313.515 142" xml:space="preserve">
<path fill="#5700FF" d="M242.515,0h-171.5c-39.212,0-71,31.788-71,71c0,0.396,0.023,0.786,0.03,1.18l-0.03,0.003L0,142h71.015h14.11
	h157.39c39.212,0,71-31.788,71-71S281.727,0,242.515,0z"/>
<g>
	<path fill="#FFFFFF" d="M45.096,65.252l-7.127,10.09l-5.846-4.044l7.808-9.93L28.44,58.206l2.122-6.807l11.091,3.684V43.271h6.887
		v11.812L59.3,51.399l2.452,6.807L50.32,61.289l7.516,10.01l-5.657,4.204L45.096,65.252z"/>
	<path fill="#FFFFFF" d="M80.291,43.271V62.53c1.495-2.002,3.209-3.483,5.145-4.444c1.935-0.961,4.144-1.441,6.626-1.441
		c5.499,0,9.716,1.688,12.652,5.065c2.936,3.377,4.404,8.242,4.404,14.594v25.265h-10.25V82.149c0-6.032-0.674-10.123-2.022-12.272
		c-1.348-2.148-3.704-3.223-7.067-3.223c-3.417,0-5.873,1.208-7.367,3.624c-1.495,2.416-2.242,6.56-2.242,12.432v18.858h-9.89
		V43.271H80.291z"/>
	<path fill="#FFFFFF" d="M126.015,82.79c0.347,3.177,1.608,5.679,3.784,7.507c2.175,1.829,4.985,2.743,8.428,2.743
		c2.295,0,4.357-0.48,6.186-1.441c1.828-0.961,3.276-2.309,4.344-4.044h11.051c-1.869,4.805-4.665,8.535-8.388,11.191
		c-3.724,2.656-8.028,3.984-12.913,3.984c-3.283,0-6.306-0.581-9.069-1.742s-5.239-2.876-7.427-5.145
		c-2.082-2.162-3.697-4.665-4.845-7.507c-1.148-2.843-1.722-5.759-1.722-8.749c0-3.069,0.527-5.959,1.582-8.668
		c1.054-2.709,2.609-5.145,4.665-7.307c2.242-2.375,4.778-4.204,7.607-5.485c2.829-1.281,5.752-1.922,8.769-1.922
		c3.817,0,7.38,0.868,10.69,2.603c3.31,1.735,6.126,4.178,8.448,7.327c1.415,1.896,2.462,4.018,3.143,6.366
		c0.681,2.349,1.021,5.045,1.021,8.088c0,0.24-0.014,0.607-0.04,1.101c-0.027,0.494-0.04,0.861-0.04,1.101H126.015z M150.319,74.662
		c-0.881-2.936-2.356-5.171-4.424-6.707c-2.069-1.535-4.678-2.302-7.828-2.302c-2.723,0-5.165,0.828-7.327,2.482
		c-2.162,1.655-3.617,3.831-4.364,6.526H150.319z"/>
	<path fill="#FFFFFF" d="M167.776,101.568V43.271h10.01v58.297H167.776z"/>
	<path fill="#FFFFFF" d="M186.955,101.568V43.271h10.01v58.297H186.955z"/>
	<path fill="#FFFFFF" d="M203.411,79.346c0-3.096,0.567-6.039,1.702-8.829c1.134-2.789,2.783-5.265,4.945-7.427
		c2.215-2.215,4.711-3.917,7.487-5.105c2.776-1.188,5.659-1.782,8.648-1.782c3.177,0,6.105,0.527,8.789,1.582
		c2.682,1.055,5.145,2.636,7.387,4.745c2.295,2.216,4.07,4.771,5.325,7.667c1.254,2.896,1.882,5.866,1.882,8.909
		c0,3.363-0.548,6.433-1.642,9.209c-1.095,2.776-2.736,5.285-4.925,7.527c-2.189,2.269-4.685,3.984-7.487,5.145
		s-5.846,1.742-9.129,1.742c-3.31,0-6.326-0.587-9.049-1.762s-5.205-2.936-7.447-5.285c-2.136-2.295-3.75-4.825-4.845-7.587
		C203.958,85.332,203.411,82.416,203.411,79.346z M213.981,79.266c0,4.084,1.121,7.321,3.363,9.709
		c2.242,2.389,5.285,3.583,9.129,3.583c3.79,0,6.813-1.221,9.069-3.664c2.255-2.442,3.383-5.732,3.383-9.87
		c0-3.71-1.182-6.76-3.543-9.149c-2.363-2.389-5.333-3.583-8.909-3.583c-3.684,0-6.687,1.208-9.009,3.624
		C215.142,72.333,213.981,75.449,213.981,79.266z"/>
	<path fill="#FFFFFF" d="M269.075,85.672h-10.25V43.271h10.25V85.672z M269.075,101.568h-10.25V90.597h10.25V101.568z"/>
</g>
<text transform="matrix(1 0 0 1 -1165.4747 -123.1705)" fill="#FFFFFF" font-family="'AvantGardeITCbyBT-Demi'" font-size="82">*hello!</text>
</svg>
